<svg id="logo" xmlns="http://www.w3.org/2000/svg" width="147.543" height="59.59" viewBox="0 0 147.543 59.59">
  <g id="Groupe_20" data-name="Groupe 20" transform="translate(0 0)">
    <g id="Groupe_15" data-name="Groupe 15" transform="translate(60.511 14.493)">
      <path id="Tracé_1" data-name="Tracé 1" d="M71,33.256H49.489l-1.337,5.608a10.282,10.282,0,0,0-.4,2.342c.015,1.617.921,2.512,3.181,2.512s3.306-1.048,4.027-4.129l.461-2.11H70.007l-.555,2.342C67.086,49.9,62.09,53.471,50.01,53.471c-9.712,0-17.32-2.5-17.32-10.785a29.956,29.956,0,0,1,.846-6.9L36.3,23.888C38.915,12.548,44.064,8.48,56.067,8.48c11.572,0,17.473,3.745,17.473,11.14a19.626,19.626,0,0,1-.614,5.192ZM59.442,20.1c0-1.711-1.059-2.605-3.253-2.605a3.717,3.717,0,0,0-3.928,3.421L50.987,26.43H58.23l1.057-4.837a5.108,5.108,0,0,0,.155-1.541Z" transform="translate(-32.69 -8.48)" fill="#fff"/>
    </g>
    <g id="Groupe_16" data-name="Groupe 16" transform="translate(100.086 14.138)">
      <path id="Tracé_2" data-name="Tracé 2" d="M91.2,38.551c-2.26,10.078-7.3,15.191-20.088,15.191-11.772,0-17.32-3.9-17.227-11.94a34.146,34.146,0,0,1,1.046-6.826l2.581-11.355c2.32-10.309,7.222-15.255,20.1-15.331,11.682,0,17.322,3.9,17.229,11.848a35.227,35.227,0,0,1-1.046,6.826ZM80.226,21.373c.032-2.019-1.154-3.082-3.278-3.082-2.387,0-3.741,1.233-4.4,3.993L68.68,38.936a5.878,5.878,0,0,0-.168,1.543c-.032,2.036.908,3.083,3.278,3.083s3.741-1.158,4.4-3.993l3.847-16.592a5.662,5.662,0,0,0,.187-1.449Z" transform="translate(-53.88 -8.29)" fill="#fff"/>
    </g>
    <g id="Groupe_17" data-name="Groupe 17" transform="translate(39.631 0.019)">
      <path id="Tracé_3" data-name="Tracé 3" d="M50.189.73,34.1,4.443,21.51,59.111H36.74L50.187.73Z" transform="translate(-21.51 -0.73)" fill="#fff"/>
    </g>
    <g id="Groupe_18" data-name="Groupe 18">
      <path id="Tracé_4" data-name="Tracé 4" d="M46.644,17.528a20.184,20.184,0,0,0,.568-4.79C47.212,4.864,40.8.72,28.491.72,15.119.72,9.512,5.019,6.3,18.748L1.827,37.9A41.386,41.386,0,0,0,.29,47.575c0,8.6,5.825,12.666,18.228,12.666,7.853,0,13.447-1.711,17.014-5.362,2.828-2.835,4.365-6.58,5.917-13.867l.644-3.082H26.14l-1.259,5.762c-.893,4.053-2.03,5.27-4.781,5.27s-3.81-1.048-3.81-2.913a11.962,11.962,0,0,1,.4-2.85l5.762-24.652c1.139-4.869,1.692-6.331,5.1-6.331,2.26,0,3.642,1.063,3.642,2.85a12.233,12.233,0,0,1-.355,2.7L29.63,23.03h15.8Z" transform="translate(-0.29 -0.72)" fill="#fff"/>
    </g>
    <g id="Groupe_19" data-name="Groupe 19" transform="translate(142.687 14.289)">
      <path id="Tracé_5" data-name="Tracé 5" d="M78.893,10.468V9.792h.187c.2,0,.3.078.3.252v.093c0,.235-.093.331-.327.331Zm1.332,1.817a.448.448,0,0,1-.153-.385v-.448c0-.416-.108-.571-.448-.665a.542.542,0,0,0,.431-.6V9.831c0-.448-.23-.616-.829-.616H78.18V12.3h.708V11.051h.168c.323,0,.323.062.323.355v.542a.465.465,0,0,0,.093.355ZM79.117,8.724a2.1,2.1,0,1,1-2.181,2,2.155,2.155,0,0,1,2.166-2.1Zm.032,4.516a2.394,2.394,0,0,0,2.4-2.435,2.43,2.43,0,1,0-2.445,2.45Z" transform="translate(-76.691 -8.371)" fill="#fff"/>
    </g>
  </g>
</svg>
