<svg xmlns="http://www.w3.org/2000/svg" viewBox="0 0 119.84 121.46"><defs><style>.cls-1,.cls-2{fill:#eb9018;}.cls-2,.cls-4{stroke:#eb9018;}.cls-2{stroke-linecap:round;stroke-linejoin:round;stroke-width:3px;}.cls-3,.cls-4{fill:none;}.cls-4{stroke-width:2px;}</style></defs><title>cta-circulaire</title><g id="Calque_2" data-name="Calque 2"><g id="Calque_1-2" data-name="Calque 1"><g id="cta-circulaire"><g id="Groupe_539" data-name="Groupe 539"><g id="Groupe_538" data-name="Groupe 538"><path id="Tracé_125" data-name="Tracé 125" class="cls-1" d="M.32,48.32,2,42.22l1.3.35L2.06,47.06l2.53.67,1.14-4.21L7,43.86,5.9,48.09l2.68.72,1.2-4.49,1.31.35-1.64,6.1Z"/><path id="Tracé_126" data-name="Tracé 126" class="cls-1" d="M10.19,36.27,14,37.91l-.66,1.53-3.7-1.61a1.76,1.76,0,0,0-1.19-.18,1.18,1.18,0,0,0-.71.72,1.62,1.62,0,0,0,0,1.31,1.77,1.77,0,0,0,1,.93l3.48,1.52-.66,1.51L7.07,41.72a14.08,14.08,0,0,0-1.78-.66l.62-1.43L7,40a2.3,2.3,0,0,1-.49-1.23,2.61,2.61,0,0,1,.22-1.35C7.34,35.9,8.51,35.54,10.19,36.27Z"/><path id="Tracé_127" data-name="Tracé 127" class="cls-1" d="M15.6,33.57l-.68-1A4,4,0,0,0,17,31a1.74,1.74,0,0,0,.37-.87.61.61,0,0,0-.27-.59.57.57,0,0,0-.52-.09,2,2,0,0,0-.7.45l-.85.76c-.92.85-1.78,1-2.59.42a1.77,1.77,0,0,1-.68-.91,2.26,2.26,0,0,1-.05-1.21,3.9,3.9,0,0,1,.62-1.34,4.43,4.43,0,0,1,1-1A3.49,3.49,0,0,1,14.48,26l.63,1.05a3.44,3.44,0,0,0-1.8,1.27,1.6,1.6,0,0,0-.34.84.68.68,0,0,0,.3.6.58.58,0,0,0,.49.11,1.48,1.48,0,0,0,.61-.37l.87-.78a2.76,2.76,0,0,1,1.41-.79,1.63,1.63,0,0,1,1.26.33,1.72,1.72,0,0,1,.79,1.46,3.36,3.36,0,0,1-.73,2A4.55,4.55,0,0,1,15.6,33.57Z"/><path id="Tracé_128" data-name="Tracé 128" class="cls-1" d="M19.6,19.24l4.91,4.57L23.4,25l-.79-.73a2.07,2.07,0,0,1,0,1.23A2.58,2.58,0,0,1,22,26.67a2.77,2.77,0,0,1-1.36.84,2.73,2.73,0,0,1-1.6-.05,4.24,4.24,0,0,1-1.59-1A4.47,4.47,0,0,1,16.35,25a3,3,0,0,1-.19-1.63,2.75,2.75,0,0,1,.72-1.43A2.72,2.72,0,0,1,18,21.17a2.15,2.15,0,0,1,1.23-.05l-.74-.68Zm2.2,4.89a2.52,2.52,0,0,0-.87-1.42,2.59,2.59,0,0,0-1.5-.79,1.58,1.58,0,0,0-1.3.56,1.55,1.55,0,0,0-.44,1.34,2.63,2.63,0,0,0,.89,1.45,2.41,2.41,0,0,0,1.48.75,1.61,1.61,0,0,0,1.29-.57A1.54,1.54,0,0,0,21.8,24.13Z"/><path id="Tracé_129" data-name="Tracé 129" class="cls-1" d="M26.36,13.63l1.92,7.06-1.13.9L20.7,18.2l1.35-1.09,4.51,2.53-1.48-5Z"/><path id="Tracé_130" data-name="Tracé 130" class="cls-1" d="M31.85,17.71a2.82,2.82,0,0,1-1.65-.43,3.74,3.74,0,0,1-1.31-1.37,3.85,3.85,0,0,1-.6-1.8,3,3,0,0,1,.4-1.66A3.82,3.82,0,0,1,30,11.16a3.57,3.57,0,0,1,1.74-.55,3,3,0,0,1,1.65.43,4,4,0,0,1,1.31,1.38,4,4,0,0,1,.59,1.8,2.89,2.89,0,0,1-.39,1.65,3.65,3.65,0,0,1-1.31,1.28A3.69,3.69,0,0,1,31.85,17.71Zm1.91-2.81a2.58,2.58,0,0,0-.47-1.63,2.61,2.61,0,0,0-1.23-1.18,1.54,1.54,0,0,0-1.38.18,1.56,1.56,0,0,0-.82,1.15,2.63,2.63,0,0,0,.46,1.63,2.56,2.56,0,0,0,1.23,1.18A1.54,1.54,0,0,0,32.93,16,1.58,1.58,0,0,0,33.76,14.9Z"/><path id="Tracé_131" data-name="Tracé 131" class="cls-1" d="M34.73,8.81l1.49-.69,2.83,6.08-1.49.69ZM35,5.32l.68,1.48L34,7.58,33.35,6.1Z"/><path id="Tracé_132" data-name="Tracé 132" class="cls-1" d="M42.2,5.71l.52,1.43a2.2,2.2,0,0,0-.88.14,1.63,1.63,0,0,0-1,.91,1.83,1.83,0,0,0,0,1.38L42.09,13l-1.55.58L38.87,9a14.24,14.24,0,0,0-.76-1.75l1.46-.54.54,1.07a1.94,1.94,0,0,1,.4-1.21,2.26,2.26,0,0,1,1-.76A2.09,2.09,0,0,1,42.2,5.71Z"/><path id="Tracé_133" data-name="Tracé 133" class="cls-1" d="M52.73,3.72A3,3,0,0,1,54,4.78a4.31,4.31,0,0,1,.67,1.75,4.17,4.17,0,0,1-.07,1.86,2.74,2.74,0,0,1-2.28,2A2.65,2.65,0,0,1,51,10.33a2.22,2.22,0,0,1-1-.72l.65,3.89L49,13.77,47.71,6.2a16,16,0,0,0-.41-1.85l1.53-.26.32,1.12a2,2,0,0,1,.69-1.1,2.85,2.85,0,0,1,2.89-.39Zm.08,4.73A2.51,2.51,0,0,0,53,6.81a2.68,2.68,0,0,0-.71-1.55,1.49,1.49,0,0,0-1.35-.37,1.54,1.54,0,0,0-1.19.78,2.56,2.56,0,0,0-.18,1.68,2.57,2.57,0,0,0,.71,1.52,1.77,1.77,0,0,0,2.54-.42Z"/><path id="Tracé_134" data-name="Tracé 134" class="cls-1" d="M55.88.09,57.52,0l.55,9.75-1.65.1Z"/><path id="Tracé_135" data-name="Tracé 135" class="cls-1" d="M66.05,3.23l-.32,6.7-1.62-.08,0-1a2.17,2.17,0,0,1-.89.81A2.52,2.52,0,0,1,62,9.86Q59.58,9.74,59.72,7l.19-4.05L61.56,3l-.2,4.05a1.61,1.61,0,0,0,.25,1.09,1.14,1.14,0,0,0,.9.39,1.49,1.49,0,0,0,1.19-.42,1.83,1.83,0,0,0,.5-1.25l.18-3.73Z"/><path id="Tracé_136" data-name="Tracé 136" class="cls-1" d="M66.91,9.33l.67-1.06A4,4,0,0,0,69.85,9.5a1.67,1.67,0,0,0,.94,0A.62.62,0,0,0,71.21,9a.55.55,0,0,0-.13-.52,2.13,2.13,0,0,0-.7-.44l-1-.45c-1.15-.49-1.64-1.21-1.46-2.18a1.86,1.86,0,0,1,.54-1,2.26,2.26,0,0,1,1.09-.55,3.83,3.83,0,0,1,1.47,0,4.51,4.51,0,0,1,1.32.46,3.62,3.62,0,0,1,1,.84l-.69,1a3.46,3.46,0,0,0-1.9-1.11,1.6,1.6,0,0,0-.92.05.66.66,0,0,0-.42.51.59.59,0,0,0,.11.5,1.51,1.51,0,0,0,.59.4L71.17,7a2.9,2.9,0,0,1,1.3.94,1.66,1.66,0,0,1,.22,1.3,1.69,1.69,0,0,1-1,1.31,3.33,3.33,0,0,1-2.09.16A4.53,4.53,0,0,1,66.91,9.33Z"/></g><path id="Tracé_137" data-name="Tracé 137" class="cls-2" d="M82.88,9.31A57,57,0,1,1,3.11,56.44L1.76,56A58.42,58.42,0,1,0,83.27,8Z"/></g><g id="Ellipse_194" data-name="Ellipse 194"><circle class="cls-3" cx="60.18" cy="61.26" r="35.6"/><circle class="cls-4" cx="60.18" cy="61.26" r="34.6"/></g></g></g></g></svg>