<?xml version="1.0" encoding="utf-8"?>
<!-- Generator: Adobe Illustrator 23.0.3, SVG Export Plug-In . SVG Version: 6.00 Build 0)  -->
<svg version="1.1" id="Ebene_1" xmlns="http://www.w3.org/2000/svg" xmlns:xlink="http://www.w3.org/1999/xlink" x="0px" y="0px"
	 viewBox="0 0 100 70" style="enable-background:new 0 0 100 70;" xml:space="preserve">
<style type="text/css">
	.st0{fill:#F01414;}
	.st1{fill:#FFFFFF;}
</style>
<title>db_em_rgb_100px</title>
<path class="st0" d="M30.6,12.1H13.8v45.8h16.8C44.5,57.8,49,48,49,34.8C49,19.5,42.5,12.1,30.6,12.1z M28.7,50.5h-3.9V19.3H27
	c9.9,0,10.9,7.2,10.9,16.4C37.9,45.8,34.5,50.5,28.7,50.5z"/>
<path class="st0" d="M78,33.9c4.7-1.4,7.9-5.7,8-10.7c0-1-0.2-11.2-13.1-11.2H53.8v45.8H70c4.3,0,17.7,0,17.7-12.9
	C87.7,41.8,86.3,35.7,78,33.9z M64.8,19.2h3.4c4.9,0,6.9,1.7,6.9,5.5c0,3-2.2,5.5-6,5.5h-4.3V19.2z M69.2,50.5h-4.5V38.7h4.8
	c5.7,0,7.1,3.3,7.1,5.9C76.6,50.5,71,50.5,69.2,50.5z"/>
<path class="st0" d="M90,0H10C4.5,0,0,4.5,0,10v50c0,5.5,4.5,10,10,10h80c5.5,0,10-4.5,10-10.1V10C100,4.5,95.5,0,90,0z M92.7,59.9
	c0.1,1.5-1.1,2.8-2.7,2.9H10c-1.5,0-2.7-1.3-2.7-2.8V10C7.2,8.5,8.4,7.2,9.9,7.1H90c1.5,0,2.7,1.3,2.7,2.8V59.9z"/>
<path class="st1" d="M30.6,12.1H13.8v45.8h16.8C44.5,57.8,49,48,49,34.8C49,19.5,42.5,12.1,30.6,12.1z M28.7,50.5h-3.9V19.3H27
	c9.9,0,10.9,7.2,10.9,16.4C37.9,45.8,34.5,50.5,28.7,50.5z"/>
<path class="st1" d="M78,33.9c4.7-1.4,7.9-5.7,8-10.7c0-1-0.2-11.2-13.1-11.2H53.8v45.8H70c4.3,0,17.7,0,17.7-12.9
	C87.7,41.8,86.3,35.7,78,33.9z M64.8,19.2h3.4c4.9,0,6.9,1.7,6.9,5.5c0,3-2.2,5.5-6,5.5h-4.3V19.2z M69.2,50.5h-4.5V38.7h4.8
	c5.7,0,7.1,3.3,7.1,5.9C76.6,50.5,71,50.5,69.2,50.5z"/>
<path class="st0" d="M30.6,12.1H13.8v45.8h16.8C44.5,57.8,49,48,49,34.8C49,19.5,42.5,12.1,30.6,12.1z M28.7,50.5h-3.9V19.3H27
	c9.9,0,10.9,7.2,10.9,16.4C37.9,45.8,34.5,50.5,28.7,50.5z M78,33.9c4.7-1.4,7.9-5.7,8-10.7c0-1-0.2-11.2-13.1-11.2H53.8v45.8H70
	c4.3,0,17.7,0,17.7-12.9C87.7,41.8,86.3,35.7,78,33.9z M64.8,19.2h3.4c4.9,0,6.9,1.7,6.9,5.5c0,3-2.2,5.5-6,5.5h-4.3V19.2z
	 M69.2,50.5h-4.5V38.7h4.8c5.7,0,7.1,3.3,7.1,5.9C76.6,50.5,71,50.5,69.2,50.5z"/>
</svg>
