<svg xmlns="http://www.w3.org/2000/svg" width="186.776" height="48.462" viewBox="0 0 186.776 48.462">
  <path id="logo_1_" data-name="logo (1)" d="M179.107,37.168h-6.3L181,23.764l-7.672-12.306h6.517l6.933,12.306-7.669,13.4Zm-.122-24.251H175.96l6.283,10.076.476.762-.469.767-6.839,11.185h2.847l6.837-11.951-6.109-10.84ZM169.393,25.75h-1.021v2.619h-2.195V20.1h3.216c1.787,0,3.318.661,3.318,2.747C172.711,24.872,171.129,25.75,169.393,25.75Zm-.1-3.915h-.919V24.02h.919c.867,0,1.276-.431,1.276-1.169S170.108,21.835,169.291,21.835Zm-8.931,6.688c-2.323,0-3.445-1.323-3.445-4.146V20.1h2.195v4.527c0,1.475.382,2.008,1.25,2.008s1.275-.533,1.275-2.008V20.1h2.118v4.272C163.754,27.2,162.683,28.522,160.36,28.522Zm-9.365,0c-2.3,0-3.854-1.6-3.854-4.324S148.7,19.952,151,19.952s3.853,1.539,3.853,4.246S153.291,28.522,151,28.522Zm0-6.688c-1,0-1.608.864-1.608,2.363S150,26.639,151,26.639,152.6,25.7,152.6,24.2,151.99,21.835,151,21.835Zm-7.706,6.534L141.86,25.6h-.842v2.771h-2.195V20.1h3.14c1.786,0,3.317.611,3.317,2.671a2.53,2.53,0,0,1-1.34,2.389l1.8,3.2h-2.449Zm-1.48-6.534h-.792v2.033h.792c.867,0,1.327-.381,1.327-1.092S142.676,21.835,141.809,21.835Zm-8.09,6.688a3.9,3.9,0,0,1-4.133-4.221,4.073,4.073,0,0,1,4.185-4.349,3.712,3.712,0,0,1,2.654,1.094l-1.2,1.347a1.927,1.927,0,0,0-1.43-.558c-1.123,0-1.965.888-1.965,2.391,0,1.55.69,2.414,2.17,2.414a1.247,1.247,0,0,0,.638-.152V25.343h-1.226V23.562h3.165V27.5a4.69,4.69,0,0,1-2.859,1.018Zm-12.268-5.19,8.168,13.742h-.2l.011.018h-6.3l-.045-.08-5-8.4-2.789-4.692,3.176-5.581,3.918-6.952H128.9l-1.267,2.031-6.184,9.918Zm-6.81-1.044-.153.275-6.6-11.1V36.129l6.571-10.746.1-.169,2.743,4.62-4.563,7.257h-10.9V12.883l-.726,3.619a8.456,8.456,0,0,0-2.681-.42c-2.049,0-4.521,1.414-6.1,5.291V37.092H86.293v-11.4l-.018.085h-16.4c.525,4.662,3.469,7.281,7.622,7.281a10.807,10.807,0,0,0,5.994-1.886l2.05,3.773a16.335,16.335,0,0,1-8.833,2.775,12.077,12.077,0,0,1-12.334-9.85v9.222H58.325V21.741c0-4.243-1.209-5.815-4.048-5.815-2.262,0-3.732,1.1-5.889,3.2V37.092H42.343V25.776H26c.526,4.662,3.469,7.281,7.622,7.281a10.8,10.8,0,0,0,5.993-1.886l2.052,3.773a16.335,16.335,0,0,1-8.833,2.775c-7.151,0-12.724-4.976-12.724-13.463,0-.174.017-.336.022-.507-1.418,3.387-4.915,5.168-9.093,5.168a9.569,9.569,0,0,1-3.523-.679A2.951,2.951,0,0,0,6.256,30.7c0,1.466,1.052,2.356,4.2,2.356h4.574c6.2,0,9.464,1.887,9.464,6.339,0,5.082-5.364,9.064-13.776,9.064C4.574,48.461,0,46.26,0,41.755c0-2.147,1.316-4.035,3.681-5.5v-.211a4.833,4.833,0,0,1-2.314-4.3A6.205,6.205,0,0,1,4.2,26.98v-.209A8.682,8.682,0,0,1,.84,19.96c0-5.919,4.785-9.222,10.2-9.222a11.658,11.658,0,0,1,3.784.629h9.254v2.708a11.322,11.322,0,0,1,7.915-3.337c5.8,0,9.319,3.472,10.348,8.756V11.367h4.993l.421,3.459h.212c2.313-2.253,4.94-4.088,8.463-4.088,5.461,0,7.882,3.644,7.934,10.011,1.371-6.279,6.35-10.011,11.5-10.011,5.971,0,9.515,3.674,10.427,9.215V11.367h4.994l.421,4.558h.209c1.84-3.353,4.574-5.187,7.309-5.187a6.583,6.583,0,0,1,2.943.524l-.02.1h5.741v.015h6.467l2.89,4.87.108.2.285.481-2.459,4.388-.54.963ZM11.671,44.53c4.154,0,6.992-1.938,6.992-4.139,0-1.989-1.63-2.566-4.574-2.566H10.566a13.723,13.723,0,0,1-3.521-.366,4.322,4.322,0,0,0-2,3.406C5.047,43.169,7.569,44.53,11.671,44.53Zm-.63-29.653c-2.525,0-4.522,1.834-4.522,5.082,0,3.3,2,5.187,4.522,5.187,2.47,0,4.467-1.887,4.467-5.187C15.508,16.764,13.563,14.877,11.041,14.877Zm8.3.944a6.724,6.724,0,0,1,1.448,3.767,13.375,13.375,0,0,1,1.817-3.767Zm12.807-.42c-3.049,0-5.678,2.253-6.2,6.548h11.46c0-4.086-1.733-6.548-5.256-6.548Zm43.871,0c-3.05,0-5.679,2.253-6.2,6.548H81.281c0-4.086-1.736-6.548-5.257-6.548ZM104.9,6.861a3.456,3.456,0,0,1-3.735-3.4,3.744,3.744,0,0,1,7.467,0A3.456,3.456,0,0,1,104.9,6.861Z" transform="translate(0.001 0.001)" fill="#fff" fill-rule="evenodd"/>
</svg>
