<svg xmlns="http://www.w3.org/2000/svg" viewBox="0 0 51 51"><defs><style>.cls-1{fill:#6b7280;}</style></defs><title>graph_3</title><g id="Calque_2" data-name="Calque 2"><g id="Calque_1-2" data-name="Calque 1"><g id="g80"><path id="path70" class="cls-1" d="M.75,0h0A.76.76,0,0,0,0,.75v49.5A.76.76,0,0,0,.75,51H50.23a.76.76,0,0,0,.75-.75h0a.76.76,0,0,0-.75-.75h-48a.76.76,0,0,1-.75-.75V.75A.76.76,0,0,0,.75,0Z"/><path id="path72" class="cls-1" d="M15,44.26V16.5a.75.75,0,0,0-.75-.75H6.75A.76.76,0,0,0,6,16.5V44.26a.75.75,0,0,0,.75.75h7.5A.74.74,0,0,0,15,44.26Zm-6.75-27h4.5a.75.75,0,0,1,.75.75V42.76a.74.74,0,0,1-.75.75H8.25a.75.75,0,0,1-.75-.75V18A.76.76,0,0,1,8.25,17.25Z"/><path id="path74" class="cls-1" d="M27,44.26V.75A.75.75,0,0,0,26.25,0h-7.5A.76.76,0,0,0,18,.75V44.26a.75.75,0,0,0,.75.75h7.5A.74.74,0,0,0,27,44.26ZM20.25,1.5h4.5a.75.75,0,0,1,.75.75V42.76a.74.74,0,0,1-.75.75h-4.5a.75.75,0,0,1-.75-.75V2.25A.76.76,0,0,1,20.25,1.5Z"/><path id="path76" class="cls-1" d="M39,44.26V16.5a.75.75,0,0,0-.75-.75h-7.5a.76.76,0,0,0-.75.75V44.26a.75.75,0,0,0,.75.75h7.5A.74.74,0,0,0,39,44.26Zm-6.75-27h4.5a.75.75,0,0,1,.75.75V42.76a.74.74,0,0,1-.75.75h-4.5a.75.75,0,0,1-.75-.75V18A.76.76,0,0,1,32.25,17.25Z"/><path id="path78" class="cls-1" d="M42.75,45h7.5a.74.74,0,0,0,.75-.75v-15a.74.74,0,0,0-.75-.75h-7.5a.75.75,0,0,0-.75.75v15A.75.75,0,0,0,42.75,45Zm1.5-15h4.5a.74.74,0,0,1,.75.75v12a.74.74,0,0,1-.75.75h-4.5a.75.75,0,0,1-.75-.75v-12A.75.75,0,0,1,44.25,30Z"/></g></g></g></svg>