<svg id="Groupe_584" data-name="Groupe 584" xmlns="http://www.w3.org/2000/svg" width="148.987" height="59.59" viewBox="0 0 148.987 59.59">
  <path id="ibm-ar21" d="M20.824,14.33v4.077h29V14.33Zm33.107,0v4.077H95.257s-4.221-4.077-9.811-4.077Zm49.431,0v4.077h25l-1.483-4.077Zm42.924,0L144.8,18.407h24.775V14.33ZM20.824,22.259v4.077h29V22.259Zm33.107.006v4.069h46.117s-.538-3.137-1.477-4.069Zm49.431,0v4.069h27.761l-1.373-4.069Zm39.956,0-1.373,4.069h27.631V22.265ZM29.158,30.188V34.27H41.717V30.188Zm33.107,0V34.27H74.824V30.188Zm24.775,0V34.27H99.6a13.873,13.873,0,0,0,.8-4.082Zm24.657,0V34.27h22.246l-1.483-4.082Zm28.888,0L139.1,34.27h22.376V30.188ZM29.16,38.122V42.2H41.719V38.122Zm33.107,0V42.2H94.344a13.762,13.762,0,0,0,3.537-4.077Zm49.431,0V42.2h12.559v-2.27l.8,2.27h23.007l.856-2.27V42.2h12.559V38.122H137.9l-1.251,3.453-1.255-3.453Zm-82.54,7.929v4.077H41.717V46.051Zm33.107,0v4.077H97.879a13.873,13.873,0,0,0-3.537-4.077Zm49.431,0v4.077h12.559V46.051Zm14.84,0,1.521,4.077h17.25l1.445-4.077Zm22.376,0v4.077h12.559V46.051ZM29.162,53.98v4.077H41.72V53.98Zm33.107,0v4.077H74.828V53.98Zm24.775,0v4.077H100.4a13.83,13.83,0,0,0-.8-4.077Zm24.657,0v4.077h12.559V53.98Zm17.691,0,1.472,4.077h11.561l1.483-4.077Zm19.524,0v4.077h12.559V53.98ZM21.056,61.909v4.082h29V61.909Zm32.881,0v4.082H98.578c.939-.935,1.477-4.082,1.477-4.082Zm49.657,0v4.082h20.659V61.909Zm28.654,0,1.514,4.082h5.883l1.42-4.082Zm16.668,0v4.082h20.893V61.909ZM21.056,69.844V73.92h29V69.844Zm32.881,0v4.069H85.445c5.59,0,9.811-4.069,9.811-4.069Zm49.657,0V73.92h20.659V69.844Zm31.525,0,1.455,4.065.251.006,1.477-4.069Zm13.8,0V73.92h20.893V69.844Z" transform="translate(-20.824 -14.33)" fill="#fff"/>
</svg>
