<?xml version="1.0" encoding="utf-8"?>
<!-- Generator: Adobe Illustrator 24.2.1, SVG Export Plug-In . SVG Version: 6.00 Build 0)  -->
<svg version="1.1" id="Ebene_1" xmlns="http://www.w3.org/2000/svg" xmlns:xlink="http://www.w3.org/1999/xlink" x="0px" y="0px"
	 viewBox="0 0 109.4 109.4" style="enable-background:new 0 0 109.4 109.4;" xml:space="preserve">
<style type="text/css">
	.st0{clip-path:url(#SVGID_2_);fill:#D42534;}
	.st1{clip-path:url(#SVGID_2_);fill:none;stroke:#D42534;}
</style>
<g>
	<defs>
		<rect id="SVGID_1_" width="109.4" height="109.4"/>
	</defs>
	<clipPath id="SVGID_2_">
		<use xlink:href="#SVGID_1_"  style="overflow:visible;"/>
	</clipPath>
	<path class="st0" d="M55.2,61.2L55.2,61.2l-2.2,0.3l0,0c0,0,0,0,0,0c0,0,0,0,0,0c0,0-0.1,0-0.1,0c-0.3,0-0.6-0.3-0.6-0.6
		c0,0,0-0.1,0-0.1c0,0,0,0,0,0l2.7-12.9c0,0,0,0,0,0l-0.1,0c0,0,0-0.1,0-0.1l0,0c0,0,0,0,0,0c0,0,0,0,0,0h-6.5c0,0,0,0,0,0
		c0,0,0,0,0,0c-0.1,0-0.1,0.1-0.1,0.1l-2.7,12.7c0,0,0,0,0,0c0,0.2-0.1,0.4-0.1,0.6c0,1.9,1.5,3.4,3.4,3.4h0l0,0c0,0,0,0,0,0h0.4h0
		c0,0,0,0,0,0c0,0,0,0,0,0v0c0.5,0,1-0.1,1.4-0.4l0,0c0,0,0,0,0,0l4.7-2.3c0,0,0,0,0,0c0,0,0,0,0,0l0,0c0.1-0.1,0.1-0.2,0.1-0.2
		C55.5,61.4,55.4,61.2,55.2,61.2"/>
	<path class="st0" d="M56.1,39.1C56.1,39.1,56.1,39.1,56.1,39.1C56.1,39.1,56.1,39.1,56.1,39.1c0-0.4-0.1-0.8-0.3-1.2l0,0
		c0,0,0,0,0,0c0,0,0,0,0,0c-0.2-0.4-0.4-0.7-0.7-1c0,0,0,0,0,0c-0.3-0.3-0.6-0.4-0.9-0.5c0,0,0,0,0,0c0,0,0,0,0,0
		c-0.4-0.1-0.8-0.1-1.1,0c0,0,0,0,0,0c-0.4,0.1-0.9,0.3-1.2,0.6c0,0,0,0,0,0c-0.3,0.3-0.6,0.6-0.8,1l0,0c-0.3,0.4-0.5,0.9-0.6,1.4
		c0,0,0,0,0,0c-0.1,0.4-0.1,0.7-0.1,1.1c0,0.1,0,0.3,0,0.4c0,0,0,0,0,0c0,0,0,0,0,0v0c0,0.4,0.1,0.8,0.3,1.2c0,0,0,0,0,0
		c0.2,0.4,0.5,0.7,0.8,1c0,0,0,0,0,0c0.3,0.2,0.6,0.4,0.9,0.5c0,0,0,0,0,0c0.2,0,0.4,0,0.5,0c0.2,0,0.4,0,0.6-0.1c0,0,0,0,0,0
		c0.4-0.1,0.8-0.3,1.1-0.6c0,0,0,0,0,0c0,0,0,0,0,0c0.3-0.3,0.6-0.6,0.8-0.9c0,0,0,0,0,0c0.2-0.4,0.4-0.9,0.5-1.4c0,0,0,0,0,0
		c0,0,0,0,0,0l0,0c0.1-0.4,0.2-0.8,0.2-1.1C56.2,39.3,56.2,39.2,56.1,39.1"/>
	<path class="st0" d="M70.3,52.8l0.1-0.1c0.6,0.7,1.5,1.2,2.5,1.2c1.8,0,3.2-1.4,3.2-3.2c0-1.8-1.4-3.2-3.2-3.2
		c-1.4,0-2.6,0.9-3,2.1l0,0c0,0,0,0,0,0c0,0,0,0,0,0c-0.1,0.2-0.3,0.3-0.6,0.3c-0.2,0-0.3-0.1-0.5-0.2c0,0,0,0,0,0l-0.1,0.1
		c-0.1-0.1-0.2-0.2-0.3-0.3c0,0,0,0,0,0l0,0c-1.1-1.2-2.7-1.8-4.3-1.8c-2,0-3.8,1-4.9,2.6c0,0,0,0,0,0c0,0,0,0,0,0
		c0,0.1,0,0.1,0,0.2c0,0.2,0.1,0.3,0.3,0.3c0,0,0,0,0,0l0,0c0,0,0,0,0,0l1.5-0.2c0,0,0,0,0,0c0,0,0,0,0.1,0c0.3,0,0.6,0.3,0.6,0.6
		c0,0.1,0,0.1,0,0.2c0,0,0,0,0,0c0,0,0,0,0,0l0,0L59,64.3c0,0.1,0.1,0.2,0.1,0.1l0,0c0,0,0,0,0,0h6.4c0,0,0,0,0,0c0,0,0,0,0,0l0-0.1
		c0,0,0,0,0,0l0.1,0c0,0,0,0,0,0c0,0,0,0,0,0l2.4-11.5h0c0,0,0,0,0,0c0-0.1,0-0.2,0.1-0.2c0.2-0.3,0.6-0.5,1-0.5
		C69.6,52.1,70.1,52.4,70.3,52.8C70.2,52.8,70.2,52.8,70.3,52.8C70.3,52.8,70.3,52.8,70.3,52.8"/>
	<path class="st0" d="M87.5,54.1L87.5,54.1C87.5,54.1,87.5,54.2,87.5,54.1c-0.1,0.8-0.3,1.6-0.5,2.4l-0.1,0c0,0,0,0,0,0c0,0,0,0,0,0
		c-0.2,0.8-0.5,1.6-0.8,2.3c0,0,0,0,0,0v0c-0.3,0.6-0.6,1.1-0.9,1.6c0,0,0,0,0,0c0,0,0,0,0,0l0,0c-0.3,0.5-0.7,0.8-1.2,1.1l0,0
		c0,0,0,0,0,0c-0.2,0.2-0.5,0.2-0.8,0.1c0,0,0,0,0,0c0,0,0,0,0,0c-0.3-0.1-0.5-0.2-0.7-0.4c0,0,0,0,0,0c-0.3-0.5-0.5-1-0.5-1.6
		c0,0,0,0,0,0c0,0,0,0,0,0c0-0.4-0.1-0.8-0.1-1.2c0-0.2,0-0.4,0-0.7c0,0,0,0,0,0c0,0,0,0,0,0c0.1-0.8,0.2-1.6,0.4-2.4c0,0,0,0,0,0
		c0.2-0.8,0.5-1.6,0.8-2.3c0,0,0,0,0,0c0.3-0.6,0.6-1.1,0.9-1.6c0,0,0,0,0,0c0.4-0.4,0.8-0.8,1.3-1.1c0,0,0,0,0,0
		c0.2-0.2,0.5-0.2,0.8-0.1c0,0,0,0,0,0c0.3,0.1,0.5,0.3,0.6,0.5c0,0,0,0,0,0c0.3,0.5,0.5,1,0.6,1.6c0,0,0,0,0,0s0,0,0,0l0.1,0l0.1,1
		L87.5,54.1z M97.2,61.7c0.1,0,0.2-0.1,0.2-0.2c0-0.1-0.1-0.3-0.3-0.3v0c0,0,0,0,0,0c0,0,0,0,0,0l-2.3,0.3h0c0,0,0,0,0,0
		c0,0-0.1,0-0.1,0c-0.3,0-0.6-0.3-0.6-0.6c0,0,0-0.1,0-0.1c0,0,0,0,0,0l2.7-12.9c0,0,0,0,0,0l-0.1,0c0,0,0-0.1,0-0.1l0,0
		c0,0,0,0,0,0c0,0,0,0,0,0h-6.4c0,0,0,0,0,0c0,0,0,0,0,0c-0.1,0-0.1,0.1-0.1,0.1l-0.4,1.8l-0.1,0c0,0,0,0,0,0c0,0,0,0,0,0
		c0,0.1-0.1,0.1-0.2,0.1c0,0,0,0,0,0l0,0.1c-0.1,0-0.1,0-0.2-0.1c0,0,0,0,0,0c0,0,0,0,0,0c-0.6-0.7-1.4-1.3-2.2-1.6c0,0,0,0,0,0
		c-0.8-0.4-1.7-0.5-2.7-0.5c0,0,0,0,0,0c-1,0.1-2,0.4-2.9,0.9c0,0,0,0,0,0c0,0,0,0,0,0c-1,0.5-1.8,1.2-2.5,2c0,0,0,0,0,0
		c-0.8,0.9-1.4,1.9-1.8,3c0,0,0,0,0,0l0,0c-0.5,1.1-0.7,2.2-0.8,3.4c0,0,0,0,0,0c0,0.2,0,0.4,0,0.6c0,0.9,0.1,1.7,0.4,2.6
		c0,0,0,0,0,0c0,0,0,0,0,0c0.3,1,0.8,1.8,1.5,2.6l0,0c0,0,0,0,0,0c0,0,0,0,0,0c0.6,0.7,1.4,1.3,2.2,1.6c0,0,0,0,0,0c0,0,0,0,0,0l0,0
		c0.8,0.3,1.7,0.5,2.6,0.4v0c0,0,0,0,0,0c0,0,0,0,0,0c0,0,0,0,0,0c1-0.1,2-0.4,3-0.9c0,0,0,0,0,0c0.4-0.2,0.8-0.5,1.2-0.8
		c0,0,0,0,0,0c0,0,0,0,0,0c0.1-0.1,0.3-0.2,0.4-0.2c0.2,0,0.4,0.1,0.5,0.3c0,0,0,0,0,0c0,0,0,0,0,0l0.1,0c0.6,0.8,1.6,1.3,2.6,1.3h0
		l0,0.1c0,0,0,0,0,0h0.5h0c0,0,0,0,0,0c0,0,0,0,0,0l0,0c0.5,0,0.9-0.1,1.4-0.4l0,0c0,0,0,0,0,0c0,0,0,0,0,0l4.7-2.3c0,0,0,0,0,0
		c0,0,0,0,0,0L97.2,61.7z"/>
	<path class="st0" d="M22.1,73.1l-1.3,0.3l0-0.1c0,0,0,0,0,0c-0.7,0.2-1.4,0.2-2.1,0.3c0,0,0,0,0,0l0,0c-0.5,0-1.1-0.1-1.6-0.2
		c0,0,0,0,0,0h0c-0.5-0.1-0.9-0.3-1.3-0.6c0,0,0,0,0,0c0,0,0,0,0,0c-0.2-0.2-0.4-0.4-0.5-0.7c0,0,0,0,0,0c0,0,0,0,0,0
		c0-0.1-0.1-0.2-0.1-0.3c0-0.2,0-0.4,0.1-0.5c0,0,0,0,0,0c0.2-0.5,0.5-0.9,0.9-1.2c0,0,0,0,0,0c0,0,0,0,0,0c0.4-0.3,0.8-0.5,1.2-0.7
		c0,0,0,0,0,0l0-0.1c1.3-0.5,2.7-0.8,4.2-0.9c0,0,0,0,0,0c0.1,0,0.2,0,0.3,0c1.7,0,3.5,0.2,5.1,0.7c-1.3,1.8-3,3.1-5.1,3.9
		C22.1,73,22.1,73,22.1,73.1C22.1,73,22.1,73.1,22.1,73.1L22.1,73.1z M27.3,69C27.3,69,27.3,69,27.3,69C27.3,69.1,27.3,69.1,27.3,69
		C27.3,69,27.3,69,27.3,69 M78.1,75.4c0.1,0.1,0.1,0.1,0.1,0.2c0,0,0,0.1,0,0.1l-0.4-0.3H78.1z M78.2,75.3
		C78.2,75.3,78.2,75.3,78.2,75.3L78.2,75.3c-0.2-0.1-0.3-0.1-0.4,0l-0.1-0.1c0,0,0,0,0,0c-3.4,3.2-7.8,4.9-12.5,4.9
		c-4.1,0-8.2-1.4-11.4-4c0,0,0,0,0,0c0,0,0,0,0,0l0,0L36.5,65.7c0,0,0,0,0,0c-0.1-0.1-0.2-0.1-0.3-0.2c0.7-1.3,1.2-2.7,1.5-4.1l0,0
		c0,0,0,0,0,0c0,0,0,0,0,0L43.7,33l0.2-1c0,0,0,0,0,0c1.1-3.6,2.5-7.1,4.3-10.4c0,0,0,0,0,0c0,0,0,0,0,0c2.2-4.9,7.1-8,12.5-8
		c3.7,0,7.3,1.5,9.9,4.2c0,0,0,0,0,0c0.3,0.3,0.5,0.7,0.7,1.2c0,0,0,0,0,0l0.1,0c0.2,0.7,0.4,1.4,0.4,2.1c0,0.1,0,0.2,0,0.2
		c0,0,0,0,0,0c0,0,0,0,0,0l0,0l-0.1,0.7l0,0c0,0,0,0,0,0c0,0,0,0,0,0c0,0.1,0,0.2-0.1,0.3l0,0c0,0,0,0,0,0c-0.1,0.3-0.4,0.4-0.7,0.4
		c-0.2,0-0.5-0.1-0.6-0.3c0,0,0,0,0,0l-0.1,0c-0.1-0.1-0.1-0.2-0.2-0.3c0,0,0,0,0,0c0,0,0,0,0,0c-0.9-0.2-1.9-0.2-2.8-0.1v0
		c0,0,0,0,0,0c0,0,0,0,0,0c-1.5,0.1-2.9,0.8-3.9,1.9c-1,1.1-1.6,2.6-1.6,4.1c0,2.6,1.7,4.9,4.1,5.8l0,0c0,0,0,0,0,0l0.2,0.1
		c0,0,0,0,0,0c0,0,0,0,0,0l0,0c0.2,0.1,0.4,0.1,0.6,0.1c0,0,0,0,0,0h0c0,0,0,0,0,0c0.2,0,0.5,0,0.7,0c3,0,5.9-1.6,7.4-4.2
		c0,0,0,0,0,0c0,0,0,0,0,0c0.1-0.1,0.1-0.2,0.2-0.3l0,0c0,0,0,0,0,0c0,0,0,0,0,0c0.6-1.6,1-3.2,1-4.9c0-1.1-0.1-2.2-0.4-3.3
		c0,0,0,0,0,0c0,0,0,0,0,0c-0.2-0.6-0.4-1.3-0.8-1.8c0,0,0,0,0,0c0,0,0,0,0,0c-1.6-2.5-3.8-4.6-6.5-6c-2.6-1.4-5.6-2.2-8.6-2.2
		c-1.1,0-2.3,0.1-3.4,0.3c0,0,0,0,0,0c-4.9,0.7-9.4,2.8-13,6.1c-3.6,3.3-6.2,7.5-7.4,12.2c0,0,0,0,0,0l-0.1,0.3l-0.1,0.3l-1.2,3.9
		l-0.4,1.3l-5,28.2c-0.5,0-1-0.1-1.4-0.1c-2.1,0-4.3,0.3-6.3,1c0,0,0,0,0,0l0,0l-0.5,0.2l-0.5,0.2l-0.4,0.2l-0.5,0.2l-1.3,0.7
		l-0.7,0.5L17.1,67l-0.3,0.2l-0.9,0.9L15.2,69L15,69.3l-0.2,0.4L14.7,70l-0.4,0.9l-0.1,0.3l-0.1,0.2l0,0.8l0.1,0.5l0.2,0.5l0.1,0.2
		l0.1,0.2c0,0,0,0,0,0l0.2,0.2l0.2,0.2c0,0,0,0,0,0l0.5,0.4l0.1,0.1l0.1,0.1c0,0,0,0,0,0h0l0.1,0.1c0,0,0,0,0,0l0.1,0.1l0.1,0.1
		c0,0,0,0,0,0h0l0.1,0.1c0,0,0,0,0,0h0l0,0.1c0,0,0,0,0,0h0l0.1,0.1c0,0,0,0,0,0h0l0.1,0.1c0,0,0,0,0,0h0.1v0c0,0,0,0,0,0h0.1
		l0.1,0.1c0,0,0,0,0,0H17v0c0,0,0,0,0,0h0.1l0.1,0.1c0,0,0,0,0,0h0.1l0.1,0.1c0,0,0,0,0,0h0.1l0.1,0.1c0,0,0,0,0,0h0.1l0.1,0.1
		c0,0,0,0,0,0h0.2l0.1,0.1c0,0,0,0,0,0h0.1l0.1,0.1c0,0,0,0,0,0h0.2l0.1,0.1c0,0,0,0,0,0h0.2l0.1,0.1c0,0,0,0,0,0h0.3l0.1,0.1
		c0,0,0,0,0,0h0.4l0.1,0.1c0,0,0,0,0,0h1.8c0,0,0,0,0,0l0.1-0.1H22c0,0,0,0,0,0l0.1-0.1h0.5c0,0,0,0,0,0v0h0.2c0,0,0,0,0,0l0.1-0.1
		h0.3c0,0,0,0,0,0l0.1-0.1h0.2c0,0,0,0,0,0l0.1-0.1h0.2c0,0,0,0,0,0l0.1-0.1h0.2c0,0,0,0,0,0l0.1-0.1h0.2c0,0,0,0,0,0l0.1-0.1h0.1
		c0,0,0,0,0,0l0.1-0.1h0.2c0,0,0,0,0,0l0.1,0H25c0,0,0,0,0,0l0.1-0.1h0.2c0,0,0,0,0,0l0-0.1h0.1c0,0,0,0,0,0l0.1-0.1h0.2
		c0,0,0,0,0,0v0h0.1c0,0,0,0,0,0l0.1-0.1H26c0,0,0,0,0,0l0.1-0.1h0c0,0,0,0,0,0l0.1-0.1h0.1c0,0,0,0,0,0l0.1-0.1h0.1c0,0,0,0,0,0
		l0.1-0.1h0.1c0,0,0,0,0,0l0.1-0.1h0c0,0,0,0,0,0l0.1-0.1H27c0,0,0,0,0,0l0.1,0h0c0,0,0,0,0,0l0.1-0.1h0.1c0,0,0,0,0,0l0.1-0.1h0
		c0,0,0,0,0,0l0.1-0.1h0c0,0,0,0,0,0l0.1-0.1h0c0,0,0,0,0,0l0.1-0.1h0.1c0,0,0,0,0,0l0.1-0.1h0c0,0,0,0,0,0l0.1-0.1h0c0,0,0,0,0,0
		l0.1-0.1h0.1c0,0,0,0,0,0l0.1-0.1h0c0,0,0,0,0,0l0.1-0.1h0c0,0,0,0,0,0l0.1-0.1h0c0,0,0,0,0,0l0.1,0h0c0,0,0,0,0,0l0.1-0.1h0
		c0,0,0,0,0,0l0.1-0.1h0c0,0,0,0,0,0l0.1-0.1h0c0,0,0,0,0,0v0h0c0,0,0,0,0,0l0.1-0.1h0c0,0,0,0,0,0l0.1-0.1h0c0,0,0,0,0,0l0.1-0.1h0
		c0,0,0,0,0,0l0.1-0.1h0c0,0,0,0,0,0v0h0c0,0,0,0,0,0l0.1-0.1h0c0,0,0,0,0,0l0.1-0.1h0c0,0,0,0,0,0v0h0c0,0,0,0,0,0l0.1-0.1h0
		c0,0,0,0,0,0v0h0c0,0,0,0,0,0l0.1-0.1h0c0,0,0,0,0,0v0l0,0h0c0,0,0,0,0,0v0h0c0,0,0,0,0,0l0.1-0.1h0c0,0,0,0,0,0l0.5-0.5
		c0,0,0,0,0,0l0,0c0.3-0.2,0.5-0.5,0.8-0.7l14,9.5l0,0c3.9,3.3,8.9,5.1,14,5.1c3.6,0,7.2-0.9,10.3-2.6c3.2-1.7,5.9-4.2,7.9-7.2
		c0,0,0,0,0,0l0-0.4c0,0,0,0,0,0L78.2,75.3z"/>
	<path class="st1" d="M54.7,104.6c27.6,0,50-22.4,50-50c0-27.6-22.4-50-50-50s-50,22.4-50,50C4.7,82.3,27.1,104.6,54.7,104.6z"/>
	<circle class="st1" cx="54.7" cy="54.7" r="54.2"/>
</g>
</svg>
