<svg xmlns="http://www.w3.org/2000/svg" viewBox="0 0 294.96 260.26"><defs><style>.cls-1{fill:#6b7280;fill-rule:evenodd;}</style></defs><title>partner</title><g id="Calque_2" data-name="Calque 2"><g id="svg973"><g id="g1585"><path id="path1541" class="cls-1" d="M129.8,91,140,82.28l4.37,5.1-10.19,8.74Z"/><path id="path1543" class="cls-1" d="M129.8,169.41l4.37-5.1,10.19,8.74-4.37,5.1Z"/><path id="path1545" class="cls-1" d="M150.18,186.89l4.37-5.1,10.19,8.74-4.37,5.1Z"/><path id="path1547" class="cls-1" d="M141.29,126.41h12.39v7.44H141.29Z"/><path id="path1549" class="cls-1" d="M193.34,126.41h14.87v7.44H193.34Z"/><path id="path1551" class="cls-1" d="M166.07,126.41h14.87v7.44H166.07Z"/><path id="path1553" class="cls-1" d="M150.18,73.54l10.19-8.74,4.37,5.1-10.19,8.74Z"/><path id="path1555" class="cls-1" d="M113.12,113.27l10.66-9.21L119.45,99l-6.33,5.47v-49A1.46,1.46,0,0,0,111.66,54H101.27a1.47,1.47,0,0,1-1.47-1.47V38.64a1.46,1.46,0,0,0-1.46-1.46H21.42A1.47,1.47,0,0,0,20,38.64V52.49A1.46,1.46,0,0,1,18.5,54H8.11a1.46,1.46,0,0,0-1.46,1.46V209.85a1.57,1.57,0,0,1-1.57,1.57H1.57A1.57,1.57,0,0,0,0,213v3.57a1.56,1.56,0,0,0,1.57,1.56H118.19a1.56,1.56,0,0,0,1.57-1.56V213a1.57,1.57,0,0,0-1.57-1.57h-3.5a1.57,1.57,0,0,1-1.57-1.57V154.32l6.33,5.47,4.33-5.09-10.66-9.21V132.73h13.29V126H113.12Zm-85-69.38H91.69a1.46,1.46,0,0,1,1.46,1.46v7.14A1.47,1.47,0,0,1,91.69,54H28.08a1.47,1.47,0,0,1-1.47-1.47V45.35A1.46,1.46,0,0,1,28.08,43.89Zm38.46,166V181.33H53.23v28.52a1.57,1.57,0,0,1-1.57,1.57H14.88a1.57,1.57,0,0,1-1.57-1.57V62.12a1.46,1.46,0,0,1,1.46-1.46H105a1.46,1.46,0,0,1,1.47,1.46V209.85a1.57,1.57,0,0,1-1.57,1.57H68.1A1.56,1.56,0,0,1,66.54,209.85Z"/><path id="path1557" class="cls-1" d="M79.32,156.16H94.19v12.39H79.32Z"/><path id="path1559" class="cls-1" d="M24.79,156.16H39.66v12.39H24.79Z"/><path id="path1561" class="cls-1" d="M24.79,128.89H39.66v12.4H24.79Z"/><path id="path1563" class="cls-1" d="M52.05,128.89H66.92v12.4H52.05Z"/><path id="path1565" class="cls-1" d="M24.79,101.63H39.66V114H24.79Z"/><path id="path1567" class="cls-1" d="M68.39,74.36H80.33a1.47,1.47,0,0,1,1.47,1.46V89.23H66.92V75.82A1.47,1.47,0,0,1,68.39,74.36Z"/><path id="path1569" class="cls-1" d="M24.79,183.42H39.66v12.4H24.79Z"/><path id="path1571" class="cls-1" d="M79.32,183.42H94.19v12.4H79.32Z"/><path id="path1573" class="cls-1" d="M79.32,101.63H94.19V114H79.32Z"/><path id="path1575" class="cls-1" d="M43.6,74.36h9.47a1.46,1.46,0,0,1,1.46,1.46V89.23H42.14V75.82A1.46,1.46,0,0,1,43.6,74.36Z"/><path id="path1577" class="cls-1" d="M79.32,128.89H94.19v12.4H79.32Z"/><path id="path1579" class="cls-1" d="M256.54,91.71A38.42,38.42,0,1,0,295,130.13,38.42,38.42,0,0,0,256.54,91.71ZM238.4,156.13a18.24,18.24,0,0,1,36.29,0,31.56,31.56,0,0,1-36.29,0Zm9.95-31.24a8.2,8.2,0,1,1,8.2,8.19h0A8.2,8.2,0,0,1,248.35,124.89ZM280.44,151A25,25,0,0,0,267,135.43a14.88,14.88,0,1,0-21-.07l.06.07A25,25,0,0,0,232.65,151a31.74,31.74,0,1,1,47.79,0Z"/><path id="path1581" class="cls-1" d="M202,79.32c21.22,0,38.42-17.76,38.42-39.66S223.23,0,202,0s-38.42,17.75-38.42,39.66S180.81,79.29,202,79.32ZM183.87,66.5c1-10.35,10-17.87,20-16.8a18.55,18.55,0,0,1,16.27,16.8,30.75,30.75,0,0,1-36.29,0Zm9.95-32.25a8.2,8.2,0,1,1,8.2,8.46h0a8.34,8.34,0,0,1-8.19-8.46ZM202,6.9c17.51,0,31.72,14.6,31.74,32.66a33.36,33.36,0,0,1-7.84,21.59,25.62,25.62,0,0,0-13.41-16,15.7,15.7,0,0,0,.07-21.71,14.56,14.56,0,0,0-21-.07,15.71,15.71,0,0,0-.07,21.72l.07.06a25.59,25.59,0,0,0-13.41,16,33.45,33.45,0,0,1,3-46.16A31.1,31.1,0,0,1,202,6.9Z"/><path id="path1583" class="cls-1" d="M202,183.42a38.42,38.42,0,1,0,38.42,38.42A38.43,38.43,0,0,0,202,183.42Zm-18.14,64.42a18.24,18.24,0,0,1,36.29,0,31.56,31.56,0,0,1-36.29,0Zm9.95-31.24a8.2,8.2,0,1,1,8.2,8.19h0A8.2,8.2,0,0,1,193.82,216.6Zm32.09,26.07a25,25,0,0,0-13.41-15.53,14.87,14.87,0,1,0-21-.07l.07.07a25,25,0,0,0-13.41,15.53,31.74,31.74,0,1,1,47.79,0Z"/></g></g></g></svg>