<?xml version="1.0" encoding="UTF-8" standalone="no"?>
<!-- Created with Inkscape (http://www.inkscape.org/) -->

<svg
   xmlns:dc="http://purl.org/dc/elements/1.1/"
   xmlns:cc="http://creativecommons.org/ns#"
   xmlns:rdf="http://www.w3.org/1999/02/22-rdf-syntax-ns#"
   xmlns:svg="http://www.w3.org/2000/svg"
   xmlns="http://www.w3.org/2000/svg"
   xmlns:sodipodi="http://sodipodi.sourceforge.net/DTD/sodipodi-0.dtd"
   xmlns:inkscape="http://www.inkscape.org/namespaces/inkscape"
   id="svg3169"
   version="1.1"
   inkscape:version="0.48.2 r9819"
   width="708.65875"
   height="149.35469"
   xml:space="preserve"
   sodipodi:docname="P_Safran_Descripteurs.pdf"><metadata
     id="metadata3175"><rdf:RDF><cc:Work
         rdf:about=""><dc:format>image/svg+xml</dc:format><dc:type
           rdf:resource="http://purl.org/dc/dcmitype/StillImage" /><dc:title></dc:title></cc:Work></rdf:RDF></metadata><defs
     id="defs3173"><clipPath
       clipPathUnits="userSpaceOnUse"
       id="clipPath3185"><path
         d="M 0,0 697,0 697,259 0,259 0,0 z"
         id="path3187"
         inkscape:connector-curvature="0" /></clipPath></defs><sodipodi:namedview
     pagecolor="#ffffff"
     bordercolor="#666666"
     borderopacity="1"
     objecttolerance="10"
     gridtolerance="10"
     guidetolerance="10"
     inkscape:pageopacity="0"
     inkscape:pageshadow="2"
     inkscape:window-width="1280"
     inkscape:window-height="702"
     id="namedview3171"
     showgrid="false"
     fit-margin-top="0"
     fit-margin-left="0"
     fit-margin-right="0"
     fit-margin-bottom="0"
     inkscape:zoom="1.3187948"
     inkscape:cx="360.7575"
     inkscape:cy="75.34125"
     inkscape:window-x="0"
     inkscape:window-y="0"
     inkscape:window-maximized="1"
     inkscape:current-layer="g3177" /><g
     id="g3177"
     inkscape:groupmode="layer"
     inkscape:label="P_Safran_Descripteurs"
     transform="matrix(1.25,0,0,-1.25,-74.8675,235.88844)"><g
       id="g3179" /><g
       id="g3181"><g
         id="g3183"
         clip-path="url(#clipPath3185)"><path
           d="m 205.658,85.113 -0.056,0 -2.814,-8.027 5.687,0 -2.817,8.027 z m -2.147,3.899 4.405,0 7.637,-19.453 -4.32,0 -1.672,4.463 -7.889,0 -1.7,-4.463 -4.04,0 7.579,19.453"
           style="fill:#878384;fill-opacity:1;fill-rule:nonzero;stroke:none"
           id="path3189"
           inkscape:connector-curvature="0" /><path
           d="m 217.554,89.012 11.483,0 0,-3.063 -7.583,0 0,-4.793 6.942,0 0,-3.068 -6.942,0 0,-5.459 7.637,0 0,-3.07 -11.537,0 0,19.453"
           style="fill:#878384;fill-opacity:1;fill-rule:nonzero;stroke:none"
           id="path3191"
           inkscape:connector-curvature="0" /><path
           d="m 237.256,80.709 1.282,0 c 1.923,0 4.127,0.277 4.127,2.701 0,2.342 -2.177,2.539 -4.127,2.539 l -1.282,0 0,-5.24 z m -3.902,8.303 4.21,0 c 4.178,0 9.168,0.144 9.168,-5.266 0,-2.283 -1.531,-4.183 -4.013,-4.517 l 0,-0.053 c 1.06,-0.084 1.672,-1.141 2.063,-2.008 l 3.121,-7.609 -4.348,0 -2.341,6.074 c -0.559,1.453 -1.058,2.008 -2.702,2.008 l -1.256,0 0,-8.082 -3.902,0 0,19.453"
           style="fill:#878384;fill-opacity:1;fill-rule:nonzero;stroke:none"
           id="path3193"
           inkscape:connector-curvature="0" /><path
           d="m 258.966,72.289 c 3.987,0 5.465,3.543 5.465,7.053 0,3.43 -1.589,6.941 -5.465,6.941 -3.874,0 -5.462,-3.511 -5.462,-6.941 0,-3.51 1.477,-7.053 5.462,-7.053 z m 0,17.059 c 6.104,0 9.532,-4.121 9.532,-10.006 0,-5.877 -3.371,-10.115 -9.532,-10.115 -6.242,0 -9.53,4.156 -9.53,10.115 0,5.967 3.345,10.006 9.53,10.006"
           style="fill:#878384;fill-opacity:1;fill-rule:nonzero;stroke:none"
           id="path3195"
           inkscape:connector-curvature="0" /><path
           d="m 282.188,85.445 c -1.225,0.534 -2.59,0.838 -3.958,0.838 -1.337,0 -3.066,-0.584 -3.066,-2.705 0,-3.369 8.528,-1.949 8.528,-8.47 0,-4.264 -3.372,-5.881 -7.301,-5.881 -2.118,0 -3.065,0.281 -4.988,0.75 l 0.362,3.511 c 1.338,-0.722 2.87,-1.199 4.402,-1.199 1.478,0 3.458,0.754 3.458,2.508 0,3.709 -8.529,2.176 -8.529,8.613 0,4.348 3.372,5.938 6.8,5.938 1.672,0 3.235,-0.223 4.656,-0.696 l -0.364,-3.207"
           style="fill:#878384;fill-opacity:1;fill-rule:nonzero;stroke:none"
           id="path3197"
           inkscape:connector-curvature="0" /><path
           d="m 290.813,80.012 1.368,0 c 1.951,0 3.705,0.639 3.705,2.902 0,2.252 -1.699,3.035 -3.705,3.035 l -1.368,0 0,-5.937 z m -3.901,9 4.934,0 c 4.235,0 8.11,-1.223 8.11,-5.877 0,-4.545 -3.316,-6.188 -7.498,-6.188 l -1.645,0 0,-7.388 -3.901,0 0,19.453"
           style="fill:#878384;fill-opacity:1;fill-rule:nonzero;stroke:none"
           id="path3199"
           inkscape:connector-curvature="0" /><path
           d="m 308.952,85.113 -0.055,0 -2.816,-8.027 5.688,0 -2.817,8.027 z m -2.144,3.899 4.402,0 7.637,-19.453 -4.321,0 -1.672,4.463 -7.886,0 -1.703,-4.463 -4.039,0 7.582,19.453"
           style="fill:#878384;fill-opacity:1;fill-rule:nonzero;stroke:none"
           id="path3201"
           inkscape:connector-curvature="0" /><path
           d="m 334.675,69.84 c -1.42,-0.332 -2.953,-0.613 -4.43,-0.613 -6.297,0 -10.676,3.152 -10.676,9.728 0,6.658 4.071,10.393 10.676,10.393 1.281,0 2.981,-0.25 4.402,-0.807 L 334.37,85.25 c -1.478,0.836 -2.816,1.033 -4.211,1.033 -4.012,0 -6.519,-3.064 -6.519,-7.054 0,-3.953 2.453,-6.94 6.605,-6.94 1.531,0 3.344,0.34 4.266,0.813 l 0.164,-3.262"
           style="fill:#878384;fill-opacity:1;fill-rule:nonzero;stroke:none"
           id="path3203"
           inkscape:connector-curvature="0" /><path
           d="m 338.892,89.012 11.488,0 0,-3.063 -7.582,0 0,-4.793 6.938,0 0,-3.068 -6.938,0 0,-5.459 7.637,0 0,-3.07 -11.543,0 0,19.453"
           style="fill:#878384;fill-opacity:1;fill-rule:nonzero;stroke:none"
           id="path3205"
           inkscape:connector-curvature="0" /><path
           d="m 373.13,72.629 2.168,0 c 3.262,0 6.414,2.42 6.414,6.66 0,4.235 -3.152,6.66 -6.414,6.66 l -2.168,0 0,-13.32 z m -3.906,16.383 5.32,0 c 5.969,0 11.234,-2.006 11.234,-9.723 0,-7.722 -5.265,-9.73 -11.234,-9.73 l -5.32,0 0,19.453"
           style="fill:#878384;fill-opacity:1;fill-rule:nonzero;stroke:none"
           id="path3207"
           inkscape:connector-curvature="0" /><path
           d="m 389.294,89.012 11.488,0 0,-3.063 -7.586,0 0,-4.793 6.942,0 0,-3.068 -6.942,0 0,-5.459 7.641,0 0,-3.07 -11.543,0 0,19.453"
           style="fill:#878384;fill-opacity:1;fill-rule:nonzero;stroke:none"
           id="path3209"
           inkscape:connector-curvature="0" /><path
           d="m 405.243,89.012 10.813,0 0,-3.063 -6.91,0 0,-4.793 6.574,0 0,-3.068 -6.574,0 0,-8.529 -3.903,0 0,19.453"
           style="fill:#878384;fill-opacity:1;fill-rule:nonzero;stroke:none"
           id="path3211"
           inkscape:connector-curvature="0" /><path
           d="m 419.599,89.012 11.48,0 0,-3.063 -7.582,0 0,-4.793 6.941,0 0,-3.068 -6.941,0 0,-5.459 7.641,0 0,-3.07 -11.539,0 0,19.453"
           style="fill:#878384;fill-opacity:1;fill-rule:nonzero;stroke:none"
           id="path3213"
           inkscape:connector-curvature="0" /><path
           d="m 435.458,89.012 4.789,0 7.418,-14.543 0.055,0 0,14.543 3.734,0 0,-19.453 -4.769,0 -7.442,14.55 -0.055,0 0,-14.55 -3.73,0 0,19.453"
           style="fill:#878384;fill-opacity:1;fill-rule:nonzero;stroke:none"
           id="path3215"
           inkscape:connector-curvature="0" /><path
           d="m 469.985,69.84 c -1.422,-0.332 -2.949,-0.613 -4.425,-0.613 -6.301,0 -10.68,3.152 -10.68,9.728 0,6.658 4.074,10.393 10.68,10.393 1.277,0 2.98,-0.25 4.402,-0.807 l -0.281,-3.291 c -1.477,0.836 -2.813,1.033 -4.211,1.033 -4.008,0 -6.516,-3.064 -6.516,-7.054 0,-3.953 2.449,-6.94 6.606,-6.94 1.531,0 3.339,0.34 4.257,0.813 l 0.168,-3.262"
           style="fill:#878384;fill-opacity:1;fill-rule:nonzero;stroke:none"
           id="path3217"
           inkscape:connector-curvature="0" /><path
           d="m 474.204,89.012 11.481,0 0,-3.063 -7.582,0 0,-4.793 6.941,0 0,-3.068 -6.941,0 0,-5.459 7.64,0 0,-3.07 -11.539,0 0,19.453"
           style="fill:#878384;fill-opacity:1;fill-rule:nonzero;stroke:none"
           id="path3219"
           inkscape:connector-curvature="0" /><path
           d="m 513.935,85.445 c -1.231,0.534 -2.59,0.838 -3.957,0.838 -1.34,0 -3.067,-0.584 -3.067,-2.705 0,-3.369 8.527,-1.949 8.527,-8.47 0,-4.264 -3.371,-5.881 -7.304,-5.881 -2.117,0 -3.063,0.281 -4.985,0.75 l 0.36,3.511 c 1.336,-0.722 2.871,-1.199 4.406,-1.199 1.473,0 3.453,0.754 3.453,2.508 0,3.709 -8.531,2.176 -8.531,8.613 0,4.348 3.375,5.938 6.805,5.938 1.671,0 3.23,-0.223 4.652,-0.696 l -0.359,-3.207"
           style="fill:#878384;fill-opacity:1;fill-rule:nonzero;stroke:none"
           id="path3221"
           inkscape:connector-curvature="0" /><path
           d="m 518.806,89.012 11.484,0 0,-3.063 -7.578,0 0,-4.793 6.937,0 0,-3.068 -6.937,0 0,-5.459 7.633,0 0,-3.07 -11.539,0 0,19.453"
           style="fill:#878384;fill-opacity:1;fill-rule:nonzero;stroke:none"
           id="path3223"
           inkscape:connector-curvature="0" /><path
           d="m 547.97,69.84 c -1.422,-0.332 -2.957,-0.613 -4.434,-0.613 -6.301,0 -10.672,3.152 -10.672,9.728 0,6.658 4.067,10.393 10.672,10.393 1.281,0 2.981,-0.25 4.402,-0.807 l -0.273,-3.291 c -1.48,0.836 -2.82,1.033 -4.211,1.033 -4.016,0 -6.523,-3.064 -6.523,-7.054 0,-3.953 2.453,-6.94 6.605,-6.94 1.535,0 3.344,0.34 4.266,0.813 l 0.168,-3.262"
           style="fill:#878384;fill-opacity:1;fill-rule:nonzero;stroke:none"
           id="path3225"
           inkscape:connector-curvature="0" /><path
           d="m 551.196,89.012 3.899,0 0,-11.229 c 0,-3.314 1.058,-5.494 4.043,-5.494 2.984,0 4.039,2.18 4.039,5.494 l 0,11.229 3.906,0 0,-12.43 c 0,-5.207 -2.957,-7.355 -7.945,-7.355 -4.992,0 -7.942,2.148 -7.942,7.355 l 0,12.43"
           style="fill:#878384;fill-opacity:1;fill-rule:nonzero;stroke:none"
           id="path3227"
           inkscape:connector-curvature="0" /><path
           d="m 575.247,80.709 1.281,0 c 1.926,0 4.125,0.277 4.125,2.701 0,2.342 -2.175,2.539 -4.125,2.539 l -1.281,0 0,-5.24 z m -3.902,8.303 4.207,0 c 4.179,0 9.172,0.144 9.172,-5.266 0,-2.283 -1.536,-4.183 -4.012,-4.517 l 0,-0.053 c 1.055,-0.084 1.672,-1.141 2.059,-2.008 l 3.125,-7.609 -4.348,0 -2.344,6.074 c -0.555,1.453 -1.055,2.008 -2.703,2.008 l -1.254,0 0,-8.082 -3.902,0 0,19.453"
           style="fill:#878384;fill-opacity:1;fill-rule:nonzero;stroke:none"
           id="path3229"
           inkscape:connector-curvature="0" /><path
           d="m 588.849,89.012 3.898,0 0,-19.453 -3.898,0 0,19.453 z"
           style="fill:#878384;fill-opacity:1;fill-rule:nonzero;stroke:none"
           id="path3231"
           inkscape:connector-curvature="0" /><path
           d="m 600.114,85.949 -5.254,0 0,3.063 14.407,0 0,-3.063 -5.25,0 0,-16.39 -3.903,0 0,16.39"
           style="fill:#878384;fill-opacity:1;fill-rule:nonzero;stroke:none"
           id="path3233"
           inkscape:connector-curvature="0" /><path
           d="m 616.231,77.252 -6.519,11.76 4.199,0 4.379,-8.164 4.469,8.164 4.039,0 -6.668,-11.76 0,-7.693 -3.899,0 0,7.693"
           style="fill:#878384;fill-opacity:1;fill-rule:nonzero;stroke:none"
           id="path3235"
           inkscape:connector-curvature="0" /><path
           d="m 361.353,79.166 c 0,-1.029 -0.832,-1.859 -1.86,-1.859 -1.027,0 -1.859,0.83 -1.859,1.859 0,1.027 0.832,1.86 1.859,1.86 1.028,0 1.86,-0.833 1.86,-1.86"
           style="fill:#878384;fill-opacity:1;fill-rule:nonzero;stroke:none"
           id="path3237"
           inkscape:connector-curvature="0" /><path
           d="m 496.062,79.166 c 0,-1.029 -0.84,-1.859 -1.864,-1.859 -1.027,0 -1.855,0.83 -1.855,1.859 0,1.027 0.828,1.86 1.855,1.86 1.024,0 1.864,-0.833 1.864,-1.86"
           style="fill:#878384;fill-opacity:1;fill-rule:nonzero;stroke:none"
           id="path3239"
           inkscape:connector-curvature="0" /><path
           d="m 195.987,116.026 8.174,5.503 c 9.822,-5.064 22.146,-5.748 26.584,-5.748 11.653,0 16.636,4.096 16.636,7.461 l 0,0.157 c 0,2.947 -3.082,4.797 -14.471,6.502 -17.87,2.639 -32.152,5.233 -32.152,15.772 l 0,0.156 c 0,10.088 11.54,17.381 31.686,17.381 14.271,0 25.424,-2.483 34.541,-7.218 l -6.782,-5.384 c -7.675,3.494 -15.982,4.283 -23.419,4.283 -8.912,0 -15.964,-2.593 -15.964,-6.257 l 0,-0.157 c 0,-2.718 5.509,-4.677 17.141,-6.384 19.309,-2.717 28.949,-7.053 28.949,-17.22 l 0,-0.158 c 0,-11.098 -11.198,-17.693 -31.588,-17.693 -14.87,0 -29.021,3.025 -39.335,9.004"
           style="fill:#6a6567;fill-opacity:1;fill-rule:nonzero;stroke:none"
           id="path3241"
           inkscape:connector-curvature="0" /><path
           d="m 311.584,126.419 -12.82,21.682 -11.453,-21.682 24.273,0 z m 1.113,28.872 27.698,-46.803 -18.843,0 -5.192,9.455 -33.522,0 -5.037,-9.455 -11.109,0 28.369,53.324 8.773,0 c 0,0 4.633,-0.121 8.863,-6.521"
           style="fill:#6a6567;fill-opacity:1;fill-rule:nonzero;stroke:none"
           id="path3243"
           inkscape:connector-curvature="0" /><path
           d="m 524.087,126.419 -12.816,21.682 -11.454,-21.682 24.27,0 z m 1.113,28.872 27.703,-46.803 -18.849,0 -5.19,9.455 -33.521,0 -5.039,-9.455 -11.106,0 28.369,53.324 8.77,0 c 0,0 4.637,-0.121 8.863,-6.521"
           style="fill:#6a6567;fill-opacity:1;fill-rule:nonzero;stroke:none"
           id="path3245"
           inkscape:connector-curvature="0" /><path
           d="m 344.46,161.432 58.15,0 -2.222,-8.352 -39.522,0 0,-16.606 31.735,0 -2.225,-8.479 -29.51,0 0,-19.507 -16.406,0 0,52.944"
           style="fill:#6a6567;fill-opacity:1;fill-rule:nonzero;stroke:none"
           id="path3247"
           inkscape:connector-curvature="0" /><path
           d="m 579.206,154.09 34.963,-26.222 0,33.564 12.652,0 0,-52.944 -5.652,0 c -7.85,0 -11.934,3.02 -11.934,3.02 l -39.306,28.743 0,-31.763 -12.653,0 0,52.944 4.94,0 c 0,0 6.762,0.38 16.99,-7.342"
           style="fill:#6a6567;fill-opacity:1;fill-rule:nonzero;stroke:none"
           id="path3249"
           inkscape:connector-curvature="0" /><path
           d="m 444.104,134.573 c 7.272,0 11.458,4.83 11.458,8.69 l 0,0.859 c 0,4.16 -4.409,7.565 -11.567,7.565 l -20.006,0 0,-17.114 20.115,0 z m 9.28,-20.034 -9.672,10.791 -19.723,0 0,-16.842 -16.244,0 0,52.944 33.449,0 c 11.789,0 19.944,-1.521 25.123,-5.153 4.518,-3.023 6.829,-7.108 6.829,-12.327 l 0,-0.051 c 0,-8.091 -3.989,-14.16 -13.575,-16.957 l 18.403,-18.456 -9.537,0 c -9.924,0 -15.053,6.051 -15.053,6.051"
           style="fill:#6a6567;fill-opacity:1;fill-rule:nonzero;stroke:none"
           id="path3251"
           inkscape:connector-curvature="0" /><path
           d="m 165.072,154.594 c -9.175,21 -30.368,35.199 -54.344,34.052 -23.94,-1.154 -43.652,-17.27 -50.796,-39.007 -0.012,-0.04 -0.026,-0.078 -0.038,-0.118 l 0.262,0.013 c 0.008,0.021 0.018,0.043 0.027,0.065 8.03,18.283 27.497,31.709 50.845,32.832 23.367,1.124 44.049,-10.396 53.784,-27.855 l 0.26,0.018"
           style="fill:#1477c6;fill-opacity:1;fill-rule:nonzero;stroke:none"
           id="path3253"
           inkscape:connector-curvature="0" /><path
           d="m 61.893,108.369 c 9.18,-20.982 30.366,-35.166 54.33,-34.011 23.967,1.15 43.7,17.308 50.824,39.084 l -0.271,-0.01 C 158.758,95.133 139.279,81.692 115.921,80.57 92.572,79.449 71.898,90.951 62.157,108.389 l -0.264,-0.02"
           style="fill:#1477c6;fill-opacity:1;fill-rule:nonzero;stroke:none"
           id="path3255"
           inkscape:connector-curvature="0" /><path
           d="m 143.535,111.34 c 0,-9.49 -16.707,-19.291 -16.707,-19.291 30.845,11.258 33.516,26.951 33.516,32.935 0,13.216 -13.451,17.406 -28.329,19.49 -11.572,1.619 -20.159,1.638 -28.209,2.464 -12.8,1.311 -16.432,4.61 -16.432,9.495 0,9.241 17.994,19.473 17.994,19.473 -29.289,-9.415 -35.76,-23.868 -35.76,-32.881 0,-21.718 42.994,-21.48 60.276,-23.298 10.67,-1.123 13.692,-4.866 13.651,-8.387"
           style="fill:#1477c6;fill-opacity:1;fill-rule:nonzero;stroke:none"
           id="path3257"
           inkscape:connector-curvature="0" /></g></g></g></svg>