<?xml version="1.0" encoding="UTF-8" standalone="no"?>
<!-- Created with Inkscape (http://www.inkscape.org/) -->

<svg
   version="1.1"
   id="svg824"
   xml:space="preserve"
   width="799.99994"
   height="205.30611"
   viewBox="0 0 799.99994 205.30611"
   xmlns="http://www.w3.org/2000/svg"
   xmlns:svg="http://www.w3.org/2000/svg"><defs
     id="defs828" /><g
     id="g830"
     transform="matrix(1.3333333,0,0,-1.3333333,-906.5222,815.86048)"><path
       id="path1092"
       style="fill:#000000;fill-opacity:1;fill-rule:evenodd;stroke:none;stroke-width:1.42705"
       d="M 226.95703 55.017578 C 183.33618 55.017578 152.70312 84.198707 152.70312 130.13281 C 152.70312 176.64916 179.28475 205.25586 226.38477 205.25586 C 245.44882 205.25586 263.93901 202.07267 283.875 193.69727 C 288.50152 191.67941 291.10156 188.49622 291.10156 182.13867 L 291.10156 77.259766 C 291.10156 70.613966 288.50152 67.438058 283.875 65.707031 C 264.80952 58.478991 246.89159 55.017578 226.95703 55.017578 z M 226.66992 89.6875 C 234.47307 89.6875 239.96083 90.548049 246.31836 92.289062 C 251.23172 93.731809 253.53711 95.749485 253.53711 100.08203 L 253.53711 160.18359 C 253.53711 164.51471 251.23172 166.54214 246.31836 167.98633 C 239.96083 169.71735 234.47307 170.58789 226.66992 170.58789 C 208.17955 170.58789 190.84375 159.60153 190.84375 130.13281 C 190.84375 100.66408 208.17955 89.6875 226.66992 89.6875 z "
       transform="matrix(0.75000002,0,0,-0.75000002,679.89167,611.89538)" /><path
       style="fill:#000000;fill-opacity:1;fill-rule:evenodd;stroke:none;stroke-width:1.07029"
       d="m 780.11915,476.80624 c 0,-3.68609 -0.42919,-8.67044 -1.73495,-12.34904 -1.08206,-3.25476 -2.38033,-4.33789 -5.62867,-4.33789 h -19.50501 c -2.16627,0 -3.24941,1.30361 -3.24941,3.03214 0,0.43775 0,0.868 0.2162,1.30575 0.86694,2.81808 1.29826,4.76816 1.29826,8.0165 0,31.86689 -69.77452,14.08398 -69.77452,60.02201 0,23.40623 18.63701,39.00361 47.67298,39.00361 15.38225,0 31.42272,-3.6786 44.8549,-11.48103 1.74136,-0.87443 2.60188,-2.60295 2.60188,-4.3379 0,-1.08207 -0.23975,-2.34929 -0.86694,-3.6786 l -6.7193,-14.3066 c -0.86693,-1.95007 -2.81808,-3.03428 -4.76815,-3.03428 -1.08314,0 -2.16627,0.22262 -3.24941,0.86801 -11.0497,6.06749 -21.67021,9.75251 -32.72099,9.75251 -11.48103,0 -18.20032,-4.19876 -18.20032,-10.83458 0,-20.29061 69.77345,-8.44782 69.77345,-57.64061"
       id="path1088" /><path
       style="fill:#000000;fill-opacity:1;fill-rule:evenodd;stroke:none;stroke-width:1.07029"
       d="M 1023.2522,529.90025 V 464.4572 c 0,-2.60295 -1.735,-4.33789 -4.3379,-4.33789 h -19.49753 c -2.60295,0 -4.3379,1.73494 -4.3379,4.33789 v 61.75696 c 0,13.00085 -9.31582,18.41546 -21.01947,18.41546 -6.71823,0 -10.3979,-0.43026 -16.03406,-1.72852 -3.46989,-0.86801 -5.19841,-2.38783 -5.19841,-5.63724 V 464.4572 c 0,-2.60295 -1.73602,-4.33789 -4.3379,-4.33789 h -19.49966 c -2.60188,0 -4.33683,1.73494 -4.33683,4.33789 v 89.7098 c 0,4.98435 2.38676,7.5873 5.41997,8.66937 15.81999,5.63081 30.77198,7.79601 43.55663,7.79601 33.36746,0 49.62306,-14.29911 49.62306,-40.73213"
       id="path1086" /><path
       id="path1084"
       style="fill:#000000;fill-opacity:1;fill-rule:evenodd;stroke:none;stroke-width:1.42705"
       d="M 557.20508 55.017578 C 513.86401 55.017578 485.54297 86.504827 485.54297 130.13281 C 485.54297 173.76222 513.86372 205.25586 559.22266 205.25586 C 602.56386 205.25586 630.87695 173.76222 630.87695 130.13281 C 630.87695 86.504827 602.56414 55.017578 557.20508 55.017578 z M 557.20508 89.6875 C 578.58388 89.6875 592.73633 103.55101 592.73633 130.13281 C 592.73633 156.71317 578.58359 170.58789 559.22266 170.58789 C 537.84399 170.58789 523.68359 156.71317 523.68359 130.13281 C 523.68359 103.55101 537.84428 89.6875 557.20508 89.6875 z "
       transform="matrix(0.75000002,0,0,-0.75000002,679.89167,611.89538)" /><path
       style="fill:#000000;fill-opacity:1;fill-rule:evenodd;stroke:none;stroke-width:1.07029"
       d="M 1278.0825,564.13463 V 464.4572 c 0,-2.60295 -1.735,-4.33789 -4.3379,-4.33789 h -19.4997 c -2.6019,0 -4.3379,1.73494 -4.3379,4.33789 v 99.67743 c 0,2.60295 1.736,4.33255 4.3379,4.33255 h 19.4997 c 2.6029,0 4.3379,-1.7296 4.3379,-4.33255"
       id="path1080" /><path
       style="fill:#000000;fill-opacity:1;fill-rule:evenodd;stroke:none;stroke-width:1.07029"
       d="m 1236.4759,605.95632 c 0,-0.93758 -0.2408,-1.81736 -0.4303,-2.81808 l -2.1727,-11.2659 c -0.4302,-2.60295 -1.5123,-4.11635 -4.1152,-4.11635 -1.6151,0 -6.2826,1.08207 -10.6141,1.08207 -11.9188,0 -17.1236,-6.06642 -17.1236,-17.98413 v -2.38675 h 27.5215 c 2.8191,0 4.3314,-1.7296 4.3314,-4.54768 v -14.95199 c 0,-2.60295 -1.5123,-4.33789 -4.3314,-4.33789 H 1202.02 V 464.4572 c 0,-2.60295 -1.7296,-4.33789 -4.3315,-4.33789 h -19.2835 c -2.6029,0 -4.3379,1.73494 -4.3379,4.33789 v 101.84263 c 0,31.20867 17.5539,45.50778 44.4247,45.50778 4.6226,0 9.3147,-0.43668 13.6526,-1.51875 3.0332,-0.64645 4.3315,-1.92652 4.3315,-4.33254"
       id="path848" /><path
       d="m 1264.9386,581.54936 c 8.8877,10e-4 14.9563,5.85022 14.9531,15.16926 0,9.53952 -6.0654,15.17247 -15.5996,15.17675 -9.1017,-0.005 -14.953,-5.63616 -14.9509,-15.17568 0,-9.31797 5.8492,-15.16498 15.5974,-15.17033"
       style="fill:#7a01e6;fill-opacity:1;fill-rule:evenodd;stroke:none;stroke-width:1.07029"
       id="path852" /><path
       d="m 694.62211,487.82512 c -8.88022,-0.003 -14.73044,-5.63509 -14.73044,-14.95306 -0.003,-9.10284 5.85022,-14.95413 15.38332,-14.95627 8.88664,0.004 14.73258,5.85129 14.72937,14.95413 0.006,9.31797 -5.84273,14.95413 -15.38225,14.9552"
       style="fill:#7a01e6;fill-opacity:1;fill-rule:evenodd;stroke:none;stroke-width:1.07029"
       id="path856" /></g></svg>
